<?xml version="1.0" encoding="UTF-8" standalone="no"?>
<!-- Created with Inkscape (http://www.inkscape.org/) -->

<svg
   xmlns:dc="http://purl.org/dc/elements/1.1/"
   xmlns:cc="http://creativecommons.org/ns#"
   xmlns:rdf="http://www.w3.org/1999/02/22-rdf-syntax-ns#"
   xmlns:svg="http://www.w3.org/2000/svg"
   xmlns="http://www.w3.org/2000/svg"
   xmlns:sodipodi="http://sodipodi.sourceforge.net/DTD/sodipodi-0.dtd"
   xmlns:inkscape="http://www.inkscape.org/namespaces/inkscape"
   width="500"
   height="500"
   id="svg2"
   version="1.1"
   inkscape:version="0.48.4 r9939"
   inkscape:export-filename="C:\data\git\hckfy\art.png"
   inkscape:export-xdpi="90"
   inkscape:export-ydpi="90"
   sodipodi:docname="New document 1">
  <defs
     id="defs4">
    <filter
       inkscape:collect="always"
       id="filter3805">
      <feGaussianBlur
         inkscape:collect="always"
         stdDeviation="4.5422711"
         id="feGaussianBlur3807" />
    </filter>
  </defs>
  <sodipodi:namedview
     id="base"
     pagecolor="#ffffff"
     bordercolor="#666666"
     borderopacity="1.0"
     inkscape:pageopacity="0.0"
     inkscape:pageshadow="2"
     inkscape:zoom="0.175"
     inkscape:cx="2303.262"
     inkscape:cy="735.87298"
     inkscape:document-units="px"
     inkscape:current-layer="layer1"
     showgrid="false"
     inkscape:window-width="1858"
     inkscape:window-height="1058"
     inkscape:window-x="-8"
     inkscape:window-y="-8"
     inkscape:window-maximized="1" />
  <metadata
     id="metadata7">
    <rdf:RDF>
      <cc:Work
         rdf:about="">
        <dc:format>image/svg+xml</dc:format>
        <dc:type
           rdf:resource="http://purl.org/dc/dcmitype/StillImage" />
        <dc:title></dc:title>
      </cc:Work>
    </rdf:RDF>
  </metadata>
  <g
     inkscape:label="Layer 1"
     inkscape:groupmode="layer"
     id="layer1"
     transform="translate(0,-552.3622)">
    <path
       style="fill:#767676;fill-opacity:1;stroke:none;filter:url(#filter3805)"
       d="m 202.34375,582.4247 c -34.93561,0.81993 -69.18969,10.6601 -98.9375,28.75 -32.085793,19.51142 -57.982502,47.47021 -74.90625,80.90625 -10.983694,21.70023 -17.354153,42.75881 -20.4375,67.625 -1.235956,9.96771 -1.235956,35.50103 0,45.46875 6.26165,50.49817 29.575118,94.93072 67.0625,127.84375 32.2322,28.29909 72.12548,45.2605 115.3125,49.06255 4.1086,0.3616 13.85261,0.3932 22.90625,0.1875 l -17,-74.81255 17.15625,-24.15625 -30.125,-35.5 c -9.44222,-0.15543 -21.19567,-0.1188 -24.84375,0.1875 -8.62013,0.72386 -18.44957,1.77367 -24.5625,2.65625 -7.11138,1.02655 -22.55824,3.88593 -26,4.8125 -3.53077,0.95048 -7.81395,0.6733 -10.5,-0.6875 -8.32539,-4.21818 -9.15758,-15.72814 -1.53125,-21.1875 4.66936,-3.34254 36.64311,-8.87582 61.125,-10.5625 9.11743,-0.62809 26.37426,-0.47681 38.8125,0.1875 l 19.53125,-31.375 c -4.73611,-0.73829 -9.58645,-1.40236 -14.5625,-1.96875 -10.74641,-1.22464 -44.87003,-1.22375 -55.375,0 -14.451,1.6834 -27.5354,4.15969 -39.0625,7.40625 -5.27202,1.48504 -6.73985,1.72366 -9.6875,1.53125 -3.99048,-0.26066 -6.83259,-1.5059 -9.65625,-4.1875 -5.91701,-5.61924 -6.26616,-15.2969 -0.75,-21.5625 2.62327,-2.97977 5.133327,-4.16887 13.75,-6.53125 12.76883,-3.50081 27.56687,-6.22121 43.71875,-8.03125 9.34812,-1.04762 39.18934,-1.49937 49.875,-0.75 5.22169,0.36618 10.39025,0.87056 15.5,1.46875 L 184.4375,726.1122 c -14.86294,-0.12718 -31.14798,0.18818 -38.46875,0.90625 -18.33702,1.79858 -35.49295,4.77199 -49.0625,8.53125 -3.94082,1.09178 -8.08618,1.9375 -9.46875,1.9375 -7.10652,0 -13.99229,-4.4178 -17.09375,-11.03125 -1.11038,-2.3677 -1.25,-3.34956 -1.25,-7.5625 0,-4.27462 0.15643,-5.18387 1.34375,-7.71875 2.96468,-6.32959 6.51889,-8.95733 15.59375,-11.5625 23.73553,-6.81376 52.29599,-10.65356 84.34375,-11.28125 13.83825,-0.27101 27.5979,0.17423 41.125,1.25 l 16.59375,-22.09375 -25.75,-85.0625 z m 173.3125,37.4375 -11.53125,85.5 -26.15625,15.25 c 43.39952,23.14626 80.3044,52.81183 103.46875,83.90625 3.00259,4.03055 4.00316,6.09653 4.59375,9.625 1.07701,6.43475 -1.3024,13.13227 -6.09375,17.25 -3.35176,2.88052 -8.88294,4.92829 -12.8125,4.75 -3.93006,-0.1784 -8.11937,-1.65061 -10.78125,-3.78125 -1.18528,-0.94881 -4.07061,-4.1604 -6.40625,-7.15625 -21.05346,-27.00386 -49.97582,-50.04737 -90.625,-72.15625 -4.04149,-2.19869 -11.19249,-5.5432 -19.1875,-9.09375 l 11,41.4375 c 29.09327,17.3853 53.74768,38.36223 72.78125,62 11.30056,14.03404 12.78446,18.02626 9.53125,25.6875 -1.23886,2.91592 -1.90272,3.90942 -3.71875,5.53125 -2.77582,2.47911 -6.27799,3.88682 -10,4 -3.48669,0.10606 -8.14271,-1.467 -10.5,-3.53125 -0.88464,-0.77472 -3.17038,-3.48875 -5.0625,-6.03125 C 348.37212,851.84 328.18386,833.57017 302,816.7997 l -30.15625,20.8125 c 2.1547,1.09883 4.12976,2.13652 5.625,3 27.83773,16.07548 50.67401,36.11106 67.78125,59.4375 3.43325,4.68131 4.36972,6.9669 4.34375,10.4375 -0.0187,2.46975 -1.84997,6.80438 -3.625,8.53125 -2.04217,1.9866 -6.32041,3.74302 -8.78125,3.59375 -5.3634,-0.3253 -7.82906,-1.92358 -12.375,-8.03125 -17.0736,-22.93922 -38.59375,-40.94907 -67.09375,-56.09375 -1.07685,-0.57223 -2.8929,-1.45986 -5,-2.4375 l 14.65625,42.03125 -26.5625,16.9375 -18.125,74.28125 c 6.43131,2.5647 12.47727,4.8413 15.4375,5.6875 44.42306,12.6988 89.26808,10.4547 131.65625,-6.625 36.79976,-14.828 68.30919,-40.26634 90.5,-73.03125 19.53625,-28.84538 30.99245,-61.26485 33.9375,-96 6.3585,-74.99389 -30.60306,-147.87564 -94.8125,-187.0625 -7.67078,-4.68148 -15.60593,-8.8116 -23.75,-12.40625 z"
       id="path3022"
       inkscape:connector-curvature="0" />
    <path
       inkscape:connector-curvature="0"
       id="path3017"
       d="m 237.65238,501.36331 c -48.5871,-4.2781 -93.4701,-23.3848 -129.7327,-55.2276 -42.174795,-37.0345 -68.387295,-87.0191 -75.431895,-143.8408 -1.3905,-11.2159 -1.3905,-39.9157 0,-51.1316 3.4688,-27.98 10.6439,-51.7357 23.001,-76.1533 19.0399,-37.623 48.133695,-69.0597 84.231495,-91.014395 44.292,-26.9387 97.4613,-37.6158 149.5396,-30.0297 83.7451,12.1988 154.1574,71.335695 180.6922,151.757495 12.2902,37.2492 14.7424,75.8428 7.264,114.3237 -8.4946,43.7097 -29.8786,83.9426 -61.4102,115.5406 -36.3201,36.3964 -81.7027,58.5327 -133.2774,65.009 -8.0084,1.0056 -36.612,1.4943 -44.8761,0.7666 z m 115.411,-119.4428 c 2.6123,-0.9323 6.2637,-4.6237 7.4996,-7.5816 1.0743,-2.5711 1.0772,-7.8654 0.01,-10.4297 -1.5056,-3.6033 -3.5035,-5.5471 -9.1232,-8.8757 -28.0021,-16.5862 -60.4829,-27.2238 -96.3867,-31.5668 -11.885,-1.4377 -41.434,-2.0246 -54.9695,-1.092 -27.5431,1.8979 -63.5246,8.1065 -68.7778,11.8676 -8.58,6.143 -7.6436,19.1084 1.7228,23.8548 3.022,1.5312 7.8571,1.8504 11.8294,0.7809 3.8721,-1.0426 21.234,-4.2568 29.2346,-5.4119 6.8773,-0.9931 17.9551,-2.2012 27.6531,-3.0157 6.2494,-0.5248 33.7729,-0.3703 40.7965,0.229 36.1781,3.0872 66.3912,12.196 94.1874,28.3963 7.4009,4.3134 10.6345,4.8768 16.328,2.8448 z m 26.3398,-60.1601 c 3.8015,-1.7609 6.8138,-4.7587 8.5914,-8.5503 1.163,-2.4805 1.4183,-3.8146 1.412,-7.3795 -0.017,-9.3656 -3.3153,-12.8471 -21.2056,-22.3807 -36.472,-19.4358 -79.7623,-31.2079 -126.9281,-34.5161 -12.0218,-0.8432 -45.5949,-0.3433 -56.1119,0.8355 -18.1715,2.0367 -34.8158,5.0937 -49.1812,9.0329 -9.6941,2.6582 -12.5108,3.9972 -15.4621,7.3501 -6.2059,7.0502 -5.839,17.931 0.8179,24.2539 3.1767,3.0174 6.3942,4.4069 10.8837,4.7002 3.3162,0.2165 4.9478,-0.04 10.879,-1.711 12.9685,-3.6531 27.7086,-6.451 43.9665,-8.3452 11.8185,-1.377 50.1924,-1.378 62.2826,0 43.8119,4.9876 79.1094,15.8224 109.7679,33.6936 3.0806,1.7957 6.6299,3.6013 7.8873,4.0124 3.3508,1.0953 8.8395,0.6554 12.4006,-0.9942 z m 28.5528,-69.0293 c 4.1449,-1.5509 8.9709,-6.1264 11.1672,-10.5878 3.1397,-6.3776 2.6225,-14.3387 -1.3333,-20.5226 -2.1691,-3.3909 -4.0849,-5.0842 -8.9717,-7.9295 -48.8402,-28.437 -120.4766,-44.2788 -193.7398,-42.8438 -36.0551,0.7063 -68.195,4.9943 -94.8984,12.6613 -10.2096,2.9314 -14.2137,5.9032 -17.5491,13.0254 -1.3357,2.8523 -1.5106,3.8554 -1.5106,8.6653 0,4.7405 0.1842,5.8323 1.4334,8.4965 3.4893,7.4416 11.2119,12.4456 19.207,12.4456 1.5555,0 6.2108,-0.9549 10.6444,-2.1834 15.2663,-4.23 34.5738,-7.5938 55.2037,-9.6176 14.0373,-1.3771 57.551,-1.3708 72.0737,0.012 51.8248,4.9292 91.9438,15.9886 125.653,34.6379 3.7397,2.069 8.1457,4.1368 9.7911,4.5953 3.6953,1.0295 8.6839,0.6977 12.8294,-0.8533 z"
       style="fill:#000000" />
    <path
       id="path3031"
       d="m 202.34375,602.4247 c -34.93561,0.81993 -69.18969,10.6601 -98.9375,28.75 C 71.320457,650.68612 45.423748,678.64491 28.5,712.081 17.516306,733.7812 11.145847,754.8398 8.0625,779.706 c -1.235956,9.9677 -1.235956,35.501 0,45.4687 6.26165,50.4982 29.575118,94.9307 67.0625,127.8438 32.2322,28.299 72.12548,45.2604 115.3125,49.0625 4.1086,0.3617 13.85261,0.3933 22.90625,0.1875 l -17,-74.8125 17.15625,-24.1563 -30.125,-35.5 c -9.44222,-0.1554 -21.19567,-0.1188 -24.84375,0.1875 -8.62013,0.7239 -18.44957,1.7737 -24.5625,2.6563 -7.11138,1.0265 -22.55824,3.8859 -26,4.8125 -3.53077,0.9504 -7.81395,0.6733 -10.5,-0.6875 -8.32539,-4.2182 -9.15758,-15.7282 -1.53125,-21.1875 4.66936,-3.3426 36.64311,-8.8759 61.125,-10.5625 9.11743,-0.6281 26.37426,-0.4769 38.8125,0.1875 l 19.53125,-31.375 c -4.73611,-0.7383 -9.58645,-1.4024 -14.5625,-1.9688 -10.74641,-1.2246 -44.87003,-1.2237 -55.375,0 -14.451,1.6834 -27.5354,4.1597 -39.0625,7.4063 -5.27202,1.485 -6.73985,1.7236 -9.6875,1.5312 -3.99048,-0.2607 -6.83259,-1.5059 -9.65625,-4.1875 -5.91701,-5.6192 -6.26616,-15.2969 -0.75,-21.5625 2.62327,-2.9798 5.133327,-4.1689 13.75,-6.5312 12.76883,-3.5009 27.56687,-6.2213 43.71875,-8.0313 9.34812,-1.0476 39.18934,-1.4994 49.875,-0.75 5.22169,0.3662 10.39025,0.8706 15.5,1.4688 L 184.4375,746.1122 c -14.86294,-0.1272 -31.14798,0.1882 -38.46875,0.9063 -18.33702,1.7985 -35.49295,4.7719 -49.0625,8.5312 -3.94082,1.0918 -8.08618,1.9375 -9.46875,1.9375 -7.10652,0 -13.99229,-4.4178 -17.09375,-11.0312 -1.11038,-2.3677 -1.25,-3.3496 -1.25,-7.5626 0,-4.2746 0.15643,-5.1838 1.34375,-7.7187 2.96468,-6.3296 6.51889,-8.9573 15.59375,-11.5625 23.73553,-6.8138 52.29599,-10.6536 84.34375,-11.2813 13.83825,-0.271 27.5979,0.1743 41.125,1.25 l 16.59375,-22.0937 -25.75,-85.0625 z m 173.3125,37.4375 -11.53125,85.5 -26.15625,15.25 c 43.39952,23.1463 80.3044,52.8118 103.46875,83.9063 3.00259,4.0305 4.00316,6.0965 4.59375,9.625 1.07701,6.4347 -1.3024,13.1322 -6.09375,17.25 -3.35176,2.8805 -8.88294,4.9282 -12.8125,4.75 -3.93006,-0.1784 -8.11937,-1.6507 -10.78125,-3.7813 -1.18528,-0.9488 -4.07061,-4.1604 -6.40625,-7.1562 -21.05346,-27.0039 -49.97582,-50.0474 -90.625,-72.1563 -4.04149,-2.1987 -11.19249,-5.5432 -19.1875,-9.0937 l 11,41.4375 c 29.09327,17.3853 53.74768,38.3622 72.78125,62 11.30056,14.034 12.78446,18.0262 9.53125,25.6875 -1.23886,2.9159 -1.90272,3.9094 -3.71875,5.5312 -2.77582,2.4791 -6.27799,3.8868 -10,4 -3.48669,0.1061 -8.14271,-1.467 -10.5,-3.5312 -0.88464,-0.7748 -3.17038,-3.4888 -5.0625,-6.0313 C 348.37212,871.84 328.18386,853.5702 302,836.7997 l -30.15625,20.8125 c 2.1547,1.0988 4.12976,2.1365 5.625,3 27.83773,16.0755 50.67401,36.1111 67.78125,59.4375 3.43325,4.6813 4.36972,6.9669 4.34375,10.4375 -0.0187,2.4697 -1.84997,6.8044 -3.625,8.5313 -2.04217,1.9865 -6.32041,3.743 -8.78125,3.5937 -5.3634,-0.3253 -7.82906,-1.9236 -12.375,-8.0312 -17.0736,-22.9393 -38.59375,-40.9491 -67.09375,-56.0938 -1.07685,-0.5722 -2.8929,-1.4599 -5,-2.4375 l 14.65625,42.0313 -26.5625,16.9375 -18.125,74.2812 c 6.43131,2.5647 12.47727,4.8413 15.4375,5.6875 44.42306,12.6988 89.26808,10.4547 131.65625,-6.625 36.79976,-14.828 68.30919,-40.2663 90.5,-73.0312 19.53625,-28.8454 30.99245,-61.2649 33.9375,-96 6.3585,-74.9939 -30.60306,-147.87569 -94.8125,-187.06255 -7.67078,-4.68148 -15.60593,-8.8116 -23.75,-12.40625 z"
       style="fill:#008000;stroke:#000700;stroke-width:5;stroke-miterlimit:4;stroke-opacity:1;stroke-dasharray:none"
       inkscape:connector-curvature="0" />
  </g>
</svg>
